<svg width="236" height="41" viewBox="0 0 236 41" fill="none" xmlns="http://www.w3.org/2000/svg">
    <path d="M84.1658 28.5303H90.057C89.5254 31.3191 88.2258 33.7699 86.1579 35.8808C83.3689 38.7278 80.0108 40.1516 76.083 40.1516C72.1558 40.1516 68.8014 38.7329 66.023 35.8948C63.2427 33.058 61.8535 29.6346 61.8535 25.6251C61.8535 21.6162 63.2427 18.1928 66.023 15.3553C68.8014 12.5185 72.1558 11.0998 76.083 11.0998C80.0108 11.0998 83.3689 12.5141 86.1579 15.3413C88.2258 17.4719 89.5254 19.931 90.057 22.7199H84.1658C83.7483 21.5191 83.0653 20.4353 82.1168 19.4664C80.4471 17.7621 78.4356 16.9095 76.083 16.9095C73.7303 16.9095 71.7188 17.7621 70.0497 19.4664C68.3801 21.1708 67.5455 23.2241 67.5455 25.6251C67.5455 28.0273 68.3801 30.0806 70.0497 31.7844C71.7188 33.4887 73.7303 34.3406 76.083 34.3406C78.4356 34.3406 80.4471 33.4887 82.1168 31.7844C83.0653 30.8162 83.7483 29.7317 84.1658 28.5303Z" fill="#261C43"/>
    <path d="M184.589 23.3569C184.178 22.175 183.148 20.515 182.214 19.5612C180.571 17.8838 178.591 17.0445 176.275 17.0445C173.96 17.0445 171.98 17.8838 170.337 19.5612C169.403 20.515 168.499 22.175 168.089 23.3569H184.589ZM182.523 31.3464H189.161C188.47 32.9484 187.481 34.4072 186.192 35.7227C183.447 38.5259 180.141 39.9277 176.275 39.9277C172.41 39.9277 169.108 38.531 166.373 35.7368C163.637 32.9439 162.27 29.5725 162.27 25.6258C162.27 21.6784 163.637 18.3076 166.373 15.5141C169.108 12.7212 172.41 11.3238 176.275 11.3238C180.141 11.3238 183.442 12.7212 186.178 15.5141C188.913 18.3076 190.283 21.6784 190.283 25.6258C190.283 26.6172 190.198 27.571 190.03 28.4858H168.32C168.73 29.669 169.403 30.7366 170.337 31.6897C171.98 33.3677 173.96 34.2064 176.275 34.2064C178.591 34.2064 180.571 33.3677 182.214 31.6897C182.327 31.5746 182.429 31.4609 182.523 31.3464Z" fill="#261C43"/>
    <path d="M198.608 39.6362H193.006V0.418114H198.608V39.6362Z" fill="#261C43"/>
    <path d="M210.335 39.6362H204.732V11.6231H210.335V39.6362Z" fill="#261C43"/>
    <path d="M229 23.7271L225.3 22.1581L225.099 22.0828C222.662 21.1731 220.737 20.4544 220.737 18.6306C220.737 16.8815 222.312 15.7948 224.85 15.7948C227.375 15.7948 229.25 16.4522 231.326 18.0646L231.598 18.276L234.595 14.6443L234.346 14.4073C231.938 12.1254 228.565 10.8171 225.089 10.8171C219.217 10.8171 214.954 14.224 214.954 18.918C214.954 22.3542 217.112 24.9894 221.182 26.5347L225.054 28.1752L225.471 28.3458C227.985 29.373 229.502 29.9927 229.502 32.065C229.502 33.8882 227.721 35.0208 224.853 35.0208C222.174 35.0208 219.468 33.9431 217.233 31.9871L216.965 31.752L213.584 35.652L213.848 35.8941C216.727 38.5407 220.53 39.9985 224.555 39.9985C230.907 39.9985 235.344 36.4876 235.344 31.46C235.344 27.8098 233.328 25.3522 229 23.7271Z" fill="#261C43"/>
    <path d="M210.736 3.62028C210.736 5.38886 209.303 6.82251 207.534 6.82251C205.766 6.82251 204.332 5.38886 204.332 3.62028C204.332 1.85169 205.766 0.418046 207.534 0.418046C209.303 0.418046 210.736 1.85169 210.736 3.62028Z" fill="#261C43"/>
    <path d="M112.648 31.5652C111.005 33.2086 109.025 34.0306 106.709 34.0306C104.393 34.0306 102.413 33.2086 100.771 31.5652C99.1267 29.9224 98.3053 27.9422 98.3053 25.6265C98.3053 23.3108 99.1267 21.3312 100.771 19.6878C102.413 18.0444 104.393 17.2224 106.709 17.2224C109.025 17.2224 111.005 18.0444 112.648 19.6878C114.291 21.3312 115.113 23.3108 115.113 25.6265C115.113 27.9422 114.291 29.9224 112.648 31.5652ZM114.763 11.9762V14.4259C112.344 12.5659 109.547 11.6199 106.36 11.6199C102.494 11.6199 99.1931 12.9885 96.4573 15.7237C93.7214 18.4595 92.3535 21.7607 92.3535 25.6265C92.3535 29.4917 93.7214 32.7935 96.4573 35.5287C99.1931 38.2651 102.494 39.6331 106.36 39.6331C109.554 39.6331 112.354 38.7084 114.763 36.8597V39.6331H120.367V25.6265V11.9762H114.763Z" fill="#261C43"/>
    <path d="M130.876 14.4284V11.9762H125.273V25.6297V39.6362H130.876V25.6297C130.876 23.3139 131.697 21.3344 133.341 19.6904C134.984 18.0476 136.964 17.2256 139.28 17.2256H143.516V11.6231H139.28C136.093 11.6231 133.295 12.5684 130.876 14.4284Z" fill="#261C43"/>
    <path d="M159.798 17.1777V11.4903H151.394V0.115597H145.791V3.36633V11.4903V17.1777V22.865V25.709C145.791 29.6334 147.159 32.9846 149.895 35.7612C152.631 38.5391 155.932 39.9277 159.798 39.9277V34.2404C157.481 34.2404 155.502 33.4059 153.859 31.7377C152.215 30.0694 151.394 28.0598 151.394 25.709V17.1777H159.798Z" fill="#261C43"/>
    <path d="M10.4016 36.4172C7.54994 35.3855 5.2705 33.3045 3.98335 30.5586C2.6962 27.8122 2.55596 24.7289 3.58769 21.8766C5.71813 15.9893 12.2403 12.9329 18.1276 15.0627C21.5189 16.2904 24.1496 19.0913 25.165 22.5571L27.8132 21.7808C26.5517 17.4742 23.2825 13.9928 19.0667 12.4677C11.7488 9.81894 3.64028 13.619 0.992097 20.9375C-0.290674 24.4835 -0.116007 28.3161 1.48417 31.73C3.08372 35.1438 5.91721 37.73 9.46252 39.0128C11.0264 39.5787 12.651 39.8567 14.2668 39.8567C17.2136 39.8567 20.1304 38.932 22.5845 37.1434L20.9599 34.9128C17.901 37.1396 13.9544 37.7031 10.4016 36.4172Z" fill="#FF5348"/>
    <path d="M48.9848 19.6675C47.3847 16.2537 44.5512 13.6675 41.0059 12.3847C36.7913 10.859 32.0509 11.4425 28.3246 13.9448L29.8635 16.2362C32.861 14.2234 36.6761 13.752 40.0668 14.9797C42.9191 16.012 45.1985 18.0918 46.4857 20.8389C47.7728 23.5847 47.913 26.6686 46.8813 29.5196C45.8496 32.3725 43.7686 34.652 41.0221 35.9385C38.2763 37.2263 35.1924 37.3659 32.3407 36.3342C28.7879 35.0483 26.1147 32.0914 25.19 28.4222L22.5137 29.0977C23.6631 33.6566 26.9855 37.3321 31.4017 38.9298C32.9693 39.4969 34.5933 39.7793 36.2128 39.7793C38.255 39.7793 40.289 39.3298 42.1935 38.4377C45.6073 36.8381 48.1935 34.004 49.4769 30.4587C50.7591 26.914 50.585 23.0814 48.9848 19.6675Z" fill="#FF5348"/>
</svg>
